<svg width="48" height="48" viewBox="0 0 48 48" fill="none" xmlns="http://www.w3.org/2000/svg">
<rect x="8" y="8" width="32" height="32" rx="16" fill="#EE0033"/>
<path d="M29 19.5H27.2675L26.4156 18.2225C26.37 18.1541 26.3082 18.098 26.2357 18.0592C26.1632 18.0204 26.0822 18 26 18H22C21.9178 18 21.8368 18.0204 21.7643 18.0592C21.6918 18.098 21.63 18.1541 21.5844 18.2225L20.7319 19.5H19C18.6022 19.5 18.2206 19.658 17.9393 19.9393C17.658 20.2206 17.5 20.6022 17.5 21V28C17.5 28.3978 17.658 28.7794 17.9393 29.0607C18.2206 29.342 18.6022 29.5 19 29.5H29C29.3978 29.5 29.7794 29.342 30.0607 29.0607C30.342 28.7794 30.5 28.3978 30.5 28V21C30.5 20.6022 30.342 20.2206 30.0607 19.9393C29.7794 19.658 29.3978 19.5 29 19.5ZM29.5 28C29.5 28.1326 29.4473 28.2598 29.3536 28.3536C29.2598 28.4473 29.1326 28.5 29 28.5H19C18.8674 28.5 18.7402 28.4473 18.6464 28.3536C18.5527 28.2598 18.5 28.1326 18.5 28V21C18.5 20.8674 18.5527 20.7402 18.6464 20.6464C18.7402 20.5527 18.8674 20.5 19 20.5H21C21.0823 20.5001 21.1634 20.4798 21.236 20.441C21.3086 20.4021 21.3706 20.346 21.4163 20.2775L22.2675 19H25.7319L26.5837 20.2775C26.6294 20.346 26.6914 20.4021 26.764 20.441C26.8366 20.4798 26.9177 20.5001 27 20.5H29C29.1326 20.5 29.2598 20.5527 29.3536 20.6464C29.4473 20.7402 29.5 20.8674 29.5 21V28ZM24 21.5C23.4561 21.5 22.9244 21.6613 22.4722 21.9635C22.0199 22.2656 21.6675 22.6951 21.4593 23.1976C21.2512 23.7001 21.1967 24.2531 21.3028 24.7865C21.409 25.3199 21.6709 25.8099 22.0555 26.1945C22.4401 26.5791 22.9301 26.8411 23.4635 26.9472C23.9969 27.0533 24.5499 26.9988 25.0524 26.7907C25.5549 26.5825 25.9844 26.2301 26.2865 25.7778C26.5887 25.3256 26.75 24.7939 26.75 24.25C26.7492 23.5209 26.4592 22.8219 25.9436 22.3064C25.4281 21.7908 24.7291 21.5008 24 21.5ZM24 26C23.6539 26 23.3155 25.8974 23.0278 25.7051C22.74 25.5128 22.5157 25.2395 22.3832 24.9197C22.2508 24.5999 22.2161 24.2481 22.2836 23.9086C22.3511 23.5691 22.5178 23.2573 22.7626 23.0126C23.0073 22.7678 23.3191 22.6011 23.6586 22.5336C23.9981 22.4661 24.3499 22.5008 24.6697 22.6332C24.9895 22.7657 25.2628 22.99 25.4551 23.2778C25.6474 23.5655 25.75 23.9039 25.75 24.25C25.75 24.7141 25.5656 25.1592 25.2374 25.4874C24.9092 25.8156 24.4641 26 24 26Z" fill="white"/>
<rect x="4" y="4" width="40" height="40" rx="20" stroke="#F2F2F2" stroke-opacity="0.75" stroke-width="8"/>
</svg>
